<svg xmlns="http://www.w3.org/2000/svg" width="420" height="65"><g fill="none" fill-rule="nonzero" stroke="none" stroke-width="1" stroke-linecap="butt" stroke-linejoin="miter" stroke-miterlimit="10" stroke-dasharray="" stroke-dashoffset="0" font-family="none" font-weight="none" font-size="none" text-anchor="none" style="mix-blend-mode: normal"><g><g data-paper-data="{&quot;isGlobalGroup&quot;:true,&quot;bounds&quot;:{&quot;x&quot;:64.99999999999999,&quot;y&quot;:202.863717985434,&quot;width&quot;:420,&quot;height&quot;:64.27256402913201}}"><g data-paper-data="{&quot;isPrimaryText&quot;:true}" fill="#000000"><path d="M100.59202,21.5639c0,0 -0.21769,0 -0.65306,0c-0.43538,0 -0.93198,0.23129 -1.4898,0.69388c-0.55783,0.46259 -0.83674,1.12926 -0.83674,2.00001c0,0.87075 0.2585,1.57144 0.77551,2.10205c0.51701,0.53062 1.19048,0.93878 2.02042,1.2245c0.82994,0.28572 1.75511,0.55783 2.77552,0.81633c1.02041,0.2585 2.03402,0.57143 3.04083,0.93878c1.00681,0.36735 1.92518,0.82313 2.75512,1.36735c0.82994,0.54422 1.50341,1.31293 2.02042,2.30613c0.51701,0.9932 0.77551,2.18369 0.77551,3.57145c0,2.42178 -0.9864,4.49662 -2.9592,6.22452c-1.9728,1.7279 -4.57145,2.59185 -7.79596,2.59185c-3.22451,0 -5.82316,-0.77551 -7.79596,-2.32654c-1.9728,-1.55103 -2.9592,-3.75512 -2.9592,-6.61228h7.42861c0.19048,2.28573 1.36055,3.42859 3.51022,3.42859c1.00681,0 1.79593,-0.26531 2.36736,-0.79592c0.57143,-0.53062 0.85715,-1.20409 0.85715,-2.02042c0,-0.81633 -0.2585,-1.483 -0.77551,-2.00001c-0.51701,-0.51701 -1.19048,-0.92517 -2.02042,-1.2245c-0.82994,-0.29932 -1.75511,-0.57823 -2.77552,-0.83674c-1.02041,-0.2585 -2.03402,-0.57823 -3.04083,-0.95919c-1.00681,-0.38095 -1.92518,-0.83674 -2.75512,-1.36735c-0.82994,-0.53062 -1.50341,-1.29252 -2.02042,-2.28573c-0.51701,-0.9932 -0.77551,-2.17008 -0.77551,-3.53063c0,-2.66668 0.9932,-4.80275 2.97961,-6.4082c1.98641,-1.60545 4.52383,-2.40818 7.61229,-2.40818c3.08845,0 5.58506,0.70068 7.48984,2.10205c1.90477,1.40137 2.89797,3.61226 2.97961,6.63269h-7.59188c-0.10884,-1.03402 -0.44218,-1.82994 -1.00001,-2.38777c-0.55783,-0.55783 -1.27212,-0.83674 -2.14287,-0.83674z" data-paper-data="{&quot;glyphName&quot;:&quot;S&quot;,&quot;glyphIndex&quot;:0,&quot;firstGlyphOfWord&quot;:true,&quot;word&quot;:1}"></path><path d="M124.26561,22.33941v3.34696c1.44218,-2.39457 3.74152,-3.59186 6.898,-3.59186c1.68708,0 3.19049,0.38095 4.51023,1.14286c1.31973,0.76191 2.34695,1.85035 3.08165,3.26532c0.84354,-1.33334 1.93879,-2.40137 3.28573,-3.2041c1.34695,-0.80273 2.85036,-1.20409 4.51023,-1.20409c2.77552,0 4.97962,0.85715 6.61228,2.57144c1.63266,1.71429 2.44899,4.09526 2.44899,7.14289v13.30619h-6.93881v-12.36741c0,-1.4694 -0.38776,-2.60546 -1.16327,-3.40818c-0.77551,-0.80273 -1.84355,-1.20409 -3.2041,-1.20409c-1.36055,0 -2.42858,0.40136 -3.2041,1.20409c-0.77551,0.80273 -1.16327,1.93879 -1.16327,3.40818v12.36741h-6.93881v-12.36741c0,-1.4694 -0.38776,-2.60546 -1.16327,-3.40818c-0.77551,-0.80273 -1.84355,-1.20409 -3.2041,-1.20409c-1.36055,0 -2.42858,0.40136 -3.2041,1.20409c-0.77551,0.80273 -1.16327,1.93879 -1.16327,3.40818v12.36741h-6.97963v-22.77563z" data-paper-data="{&quot;glyphName&quot;:&quot;m&quot;,&quot;glyphIndex&quot;:1,&quot;word&quot;:1}"></path><path d="M175.40874,37.89052c0,0 0.2517,-0.2449 0.75511,-0.7347c0.5034,-0.4898 0.75511,-1.63266 0.75511,-3.42859c0,-1.79593 -0.5034,-3.17689 -1.51021,-4.14288c-1.00681,-0.96599 -2.16328,-1.44899 -3.46941,-1.44899c-1.30613,0 -2.4626,0.4898 -3.46941,1.4694c-1.00681,0.9796 -1.51021,2.36736 -1.51021,4.16329c0,1.79593 0.5034,3.17689 1.51021,4.14288c1.00681,0.96599 2.16328,1.44899 3.46941,1.44899c1.30613,0 2.4626,-0.4898 3.46941,-1.4694zM162.87806,42.13544c0,0 -0.5034,-0.54422 -1.51021,-1.63266c-1.00681,-1.08844 -1.51021,-3.33335 -1.51021,-6.73473c0,-3.40138 1.00681,-6.19731 3.02042,-8.3878c2.01362,-2.19049 4.46941,-3.28573 7.36739,-3.28573c2.89797,0 5.12248,1.07484 6.6735,3.22451v-2.97961h6.97963v22.77563h-6.97963v-3.30614c-1.68708,2.39457 -3.9456,3.59186 -6.77555,3.59186c-2.82995,0 -5.25173,-1.08844 -7.26534,-3.26532z" data-paper-data="{&quot;glyphName&quot;:&quot;a&quot;,&quot;glyphIndex&quot;:2,&quot;word&quot;:1}"></path><path d="M188.47003,29.19659c0,-2.01362 0.85715,-3.7007 2.57144,-5.06125c1.71429,-1.36055 4.03403,-2.04083 6.95922,-2.04083c2.92519,0 5.28574,0.66667 7.08167,2.00001c1.79593,1.33334 2.74831,3.15648 2.85716,5.46942h-7.14289c-0.08163,-0.78912 -0.35374,-1.32654 -0.81633,-1.61225c-0.46259,-0.28572 -1.15647,-0.42857 -2.08164,-0.42857c-1.82314,0 -2.73471,0.55783 -2.73471,1.67348c0,1.00681 1.11565,1.70069 3.34696,2.08164c2.25852,0.38095 4.31295,0.96599 6.1633,1.75511c0.95239,0.38095 1.74831,1.01361 2.38777,1.89797c0.63946,0.88436 0.95919,1.966 0.95919,3.24492c0,2.12246 -0.91157,3.85716 -2.73471,5.20411c-1.82314,1.34695 -4.12247,2.02042 -6.898,2.02042c-2.77552,0 -5.08846,-0.63266 -6.93881,-1.89797c-1.85035,-1.26531 -2.85716,-3.13607 -3.02042,-5.61227h7.14289c0.19048,1.38776 1.17007,2.08164 2.93879,2.08164c0.81633,0 1.4898,-0.19048 2.02042,-0.57143c0.53062,-0.38095 0.79592,-0.87075 0.79592,-1.4694c0,-0.59864 -0.44218,-1.07484 -1.32654,-1.42858c-0.88436,-0.35374 -1.95239,-0.65306 -3.2041,-0.89796c-1.25171,-0.2449 -2.51022,-0.55102 -3.77553,-0.91837c-1.26531,-0.36735 -2.34015,-1.00681 -3.22451,-1.91838c-0.88436,-0.91157 -1.32654,-2.10205 -1.32654,-3.57145z" data-paper-data="{&quot;glyphName&quot;:&quot;s&quot;,&quot;glyphIndex&quot;:3,&quot;word&quot;:1}"></path><path d="M219.65387,14.9108v10.77557c1.44218,-2.39457 3.74152,-3.59186 6.898,-3.59186c2.61226,0 4.72792,0.87075 6.34697,2.61226c1.61906,1.74151 2.42858,4.10887 2.42858,7.10208v13.30619h-6.93881v-12.36741c0,-1.4694 -0.38776,-2.60546 -1.16327,-3.40818c-0.77551,-0.80273 -1.84355,-1.20409 -3.2041,-1.20409c-1.36055,0 -2.42858,0.40136 -3.2041,1.20409c-0.77551,0.80273 -1.16327,1.93879 -1.16327,3.40818v12.36741h-6.97963v-30.20424z" data-paper-data="{&quot;glyphName&quot;:&quot;h&quot;,&quot;glyphIndex&quot;:4,&quot;word&quot;:1}"></path><path d="M247.6132,19.76797c0,0 -0.19728,0.19728 -0.59184,0.59184c-0.39456,0.39456 -1.16327,0.59184 -2.30613,0.59184c-1.14286,0 -2.10885,-0.39456 -2.89797,-1.18368c-0.78912,-0.78912 -1.18368,-1.76191 -1.18368,-2.91838c0,-1.15647 0.39456,-2.12926 1.18368,-2.91838c0.78912,-0.78912 1.75511,-1.18368 2.89797,-1.18368c1.14286,0 2.10885,0.39456 2.89797,1.18368c0.78912,0.78912 1.18368,1.76191 1.18368,2.91838c0,1.15647 -0.39456,2.12926 -1.18368,2.91838zM241.24582,45.11504v-22.77563h6.97963v22.77563z" data-paper-data="{&quot;glyphName&quot;:&quot;i&quot;,&quot;glyphIndex&quot;:5,&quot;word&quot;:1}"></path><path d="M261.32756,22.33941v3.34696c1.44218,-2.39457 3.74152,-3.59186 6.898,-3.59186c2.61226,0 4.72792,0.87075 6.34697,2.61226c1.61906,1.74151 2.42858,4.10887 2.42858,7.10208v13.30619h-6.93881v-12.36741c0,-1.4694 -0.38776,-2.60546 -1.16327,-3.40818c-0.77551,-0.80273 -1.84355,-1.20409 -3.2041,-1.20409c-1.36055,0 -2.42858,0.40136 -3.2041,1.20409c-0.77551,0.80273 -1.16327,1.93879 -1.16327,3.40818v12.36741h-6.97963v-22.77563z" data-paper-data="{&quot;glyphName&quot;:&quot;n&quot;,&quot;glyphIndex&quot;:6,&quot;word&quot;:1}"></path><path d="M284.26646,42.13544c0,0 -0.5034,-0.54422 -1.51021,-1.63266c-1.00681,-1.08844 -1.51021,-3.33335 -1.51021,-6.73473c0,-3.40138 1.00681,-6.19731 3.02042,-8.3878c2.01362,-2.19049 4.46941,-3.28573 7.36739,-3.28573c2.89797,0 5.12248,1.07484 6.6735,3.22451v-2.97961h6.97963v22.65318c0,3.18369 -0.87075,5.83677 -2.61226,7.95923c-0.87075,1.08844 -2.06124,1.93198 -3.57145,2.53063c-1.51021,0.59864 -3.25852,0.89796 -5.24493,0.89796c-3.48301,0 -6.24493,-0.70749 -8.28576,-2.12246c-2.04083,-1.41497 -3.1973,-3.57825 -3.46941,-6.48983h6.85718c0.65306,1.71429 2.28573,2.57144 4.89799,2.57144c1.27892,0 2.34015,-0.42857 3.18369,-1.28572c0.84354,-0.85715 1.26531,-2.2109 1.26531,-4.06125v-3.18369c-1.68708,2.39457 -3.9456,3.59186 -6.77555,3.59186c-2.82995,0 -5.25173,-1.08844 -7.26534,-3.26532zM296.79714,37.89052c0,0 0.2517,-0.2449 0.75511,-0.7347c0.5034,-0.4898 0.75511,-1.63266 0.75511,-3.42859c0,-1.79593 -0.5034,-3.17689 -1.51021,-4.14288c-1.00681,-0.96599 -2.16328,-1.44899 -3.46941,-1.44899c-1.30613,0 -2.4626,0.4898 -3.46941,1.4694c-1.00681,0.9796 -1.51021,2.36736 -1.51021,4.16329c0,1.79593 0.5034,3.17689 1.51021,4.14288c1.00681,0.96599 2.16328,1.44899 3.46941,1.44899c1.30613,0 2.4626,-0.4898 3.46941,-1.4694z" data-paper-data="{&quot;glyphName&quot;:&quot;g&quot;,&quot;glyphIndex&quot;:7,&quot;lastGlyphOfWord&quot;:true,&quot;word&quot;:1}"></path><path d="M324.58631,16.46183h3.76254v25.75895h10.04723v2.89426h-13.80977z" data-paper-data="{&quot;glyphName&quot;:&quot;L&quot;,&quot;glyphIndex&quot;:8,&quot;firstGlyphOfWord&quot;:true,&quot;fontStyleEffect&quot;:true,&quot;word&quot;:2}"></path><path d="M353.18318,42.31792c0,0 0.52751,0 1.58252,0c1.05502,0 2.35666,-0.76043 3.90493,-2.2813c1.54827,-1.52087 2.3224,-3.62405 2.3224,-6.30954c0,-2.68549 -0.73988,-4.78182 -2.21964,-6.28899c-1.47976,-1.50716 -3.28151,-2.26075 -5.40524,-2.26075c-2.12373,0 -3.89808,0.75358 -5.32303,2.26075c-1.42496,1.50716 -2.13743,3.61034 -2.13743,6.30954c0,2.69919 0.68507,4.80237 2.05522,6.30954c1.37015,1.50716 3.11024,2.26075 5.22027,2.26075zM345.18835,42.19461c0,0 -0.51723,-0.53436 -1.55169,-1.60308c-1.03446,-1.06872 -1.55169,-3.34317 -1.55169,-6.82335c0,-3.48018 1.08242,-6.29584 3.24725,-8.44697c2.16484,-2.15113 4.87773,-3.2267 8.13869,-3.2267c3.26096,0 5.97385,1.07557 8.13869,3.2267c2.16484,2.15113 3.24725,4.95994 3.24725,8.42642c0,3.46648 -1.13037,6.27529 -3.39112,8.42642c-2.26075,2.15113 -5.0216,3.2267 -8.28255,3.2267c-3.26096,0 -5.9259,-1.06872 -7.99482,-3.20615z" data-paper-data="{&quot;glyphName&quot;:&quot;o&quot;,&quot;glyphIndex&quot;:9,&quot;fontStyleEffect&quot;:true,&quot;word&quot;:2}"></path><path d="M379.54321,45.5729c-3.0918,0 -5.67291,-1.11112 -7.74331,-3.33335c-2.0704,-2.22223 -3.10561,-5.06559 -3.10561,-8.53007c0,-3.46448 1.0283,-6.26642 3.0849,-8.40584c2.0566,-2.13942 4.64461,-3.20913 7.76402,-3.20913c1.93238,0 3.62321,0.45549 5.07249,1.36647c1.44928,0.91098 2.5466,2.09801 3.29194,3.5611v-4.55489h3.80954v23.31275c0,3.11941 -1.0076,5.66601 -3.02279,7.63979c-2.01519,1.97379 -4.56869,2.96068 -7.6605,2.96068c-3.0918,0 -5.6522,-0.71774 -7.6812,-2.15322c-2.029,-1.43548 -3.18152,-3.31265 -3.45758,-5.6315h3.68532c0.35887,1.29745 1.20083,2.37406 2.52589,3.22983c1.32506,0.85577 2.96758,1.28365 4.92756,1.28365c1.95998,0 3.5956,-0.64183 4.90686,-1.92548c1.31126,-1.28365 1.96688,-3.0849 1.96688,-5.40376v-5.21742c-0.74535,1.49069 -1.84266,2.69843 -3.29194,3.62321c-1.44928,0.92478 -3.14011,1.38717 -5.07249,1.38717zM385.65091,40.02422c0,0 0.37612,-0.38648 1.12837,-1.15943c0.75225,-0.77295 1.12837,-2.44308 1.12837,-5.01038c0,-2.5673 -0.75225,-4.6239 -2.25674,-6.1698c-1.50449,-1.5459 -3.31265,-2.31885 -5.42446,-2.31885c-2.11181,0 -3.91997,0.74535 -5.42446,2.23604c-1.50449,1.49069 -2.25674,3.51969 -2.25674,6.08699c0,2.5673 0.75915,4.65151 2.27744,6.25262c1.5183,1.60111 3.32645,2.40167 5.42446,2.40167c2.09801,0 3.89926,-0.77295 5.40376,-2.31885z" data-paper-data="{&quot;glyphName&quot;:&quot;g&quot;,&quot;glyphIndex&quot;:10,&quot;fontStyleEffect&quot;:true,&quot;word&quot;:2}"></path><path d="M408.32632,42.31792c0,0 0.52751,0 1.58252,0c1.05502,0 2.35666,-0.76043 3.90493,-2.2813c1.54827,-1.52087 2.3224,-3.62405 2.3224,-6.30954c0,-2.68549 -0.73988,-4.78182 -2.21964,-6.28899c-1.47976,-1.50716 -3.28151,-2.26075 -5.40524,-2.26075c-2.12373,0 -3.89808,0.75358 -5.32303,2.26075c-1.42496,1.50716 -2.13743,3.61034 -2.13743,6.30954c0,2.69919 0.68507,4.80237 2.05522,6.30954c1.37015,1.50716 3.11024,2.26075 5.22027,2.26075zM400.3315,42.19461c0,0 -0.51723,-0.53436 -1.55169,-1.60308c-1.03446,-1.06872 -1.55169,-3.34317 -1.55169,-6.82335c0,-3.48018 1.08242,-6.29584 3.24725,-8.44697c2.16484,-2.15113 4.87773,-3.2267 8.13869,-3.2267c3.26096,0 5.97385,1.07557 8.13869,3.2267c2.16484,2.15113 3.24725,4.95994 3.24725,8.42642c0,3.46648 -1.13037,6.27529 -3.39112,8.42642c-2.26075,2.15113 -5.0216,3.2267 -8.28255,3.2267c-3.26096,0 -5.9259,-1.06872 -7.99482,-3.20615z" data-paper-data="{&quot;glyphName&quot;:&quot;o&quot;,&quot;glyphIndex&quot;:11,&quot;lastGlyphOfWord&quot;:true,&quot;fontStyleEffect&quot;:true,&quot;word&quot;:2}"></path></g><g data-paper-data="{&quot;fillRule&quot;:&quot;nonzero&quot;,&quot;fillRuleOriginal&quot;:&quot;nonzero&quot;,&quot;isIcon&quot;:true,&quot;iconStyle&quot;:&quot;standalone&quot;,&quot;selectedEffects&quot;:{&quot;container&quot;:&quot;&quot;,&quot;transformation&quot;:&quot;rotate0;translate40&quot;,&quot;pattern&quot;:&quot;&quot;},&quot;bounds&quot;:{&quot;x&quot;:64.99999999999999,&quot;y&quot;:202.863717985434,&quot;width&quot;:63.99369180106298,&quot;height&quot;:64.27256402913201},&quot;iconType&quot;:&quot;icon&quot;,&quot;rawIconId&quot;:&quot;a765af91-c2ac-4756-9f7b-329a64c6f1f2&quot;,&quot;suitableAsStandaloneIcon&quot;:true}" fill="#fad270"><path d="M63.99369,0.36372h-58.24747c-3.17069,0 -5.74217,2.5682 -5.74622,5.73888v36.47347l32.23168,-10.07607v-8.13131l31.76201,-9.78986M0,64.63628h58.24747c3.17355,0 5.74622,-2.57267 5.74622,-5.74622v-36.47347l-31.76201,10.06873v8.13131l-32.23168,9.80454z" data-paper-data="{&quot;isPathIcon&quot;:true}"></path></g></g></g></g></svg>